<?xml version="1.0" encoding="utf-8"?>
<!-- Generator: Adobe Illustrator 24.0.1, SVG Export Plug-In . SVG Version: 6.00 Build 0)  -->
<svg version="1.1" id="Layer_1" xmlns="http://www.w3.org/2000/svg" xmlns:xlink="http://www.w3.org/1999/xlink" x="0px" y="0px"
	 viewBox="0 0 105.2 105.2" style="enable-background:new 0 0 105.2 105.2;" xml:space="preserve">
<style type="text/css">
	.st0{clip-path:url(#SVGID_1_);fill:#FFFFFF;}
	.st1{clip-path:url(#SVGID_1_);fill:#B2B2B2;}
</style>
<title>Asset 1</title>
<g>
	<defs>
		<rect id="SVGID_3_" x="14.1" y="14.1" width="77" height="77"/>
	</defs>
	<clipPath id="SVGID_1_">
		<use xlink:href="#SVGID_3_"  style="overflow:visible;"/>
	</clipPath>
	<path class="st0" d="M52.6,91.1c21.3,0,38.5-17.2,38.5-38.5c0-21.2-17.2-38.5-38.5-38.5S14.1,31.3,14.1,52.6
		C14.1,73.8,31.3,91.1,52.6,91.1"/>
	<path class="st1" d="M52.6,14.1c-21.3,0-38.5,17.2-38.5,38.5c0,19.1,13.9,34.8,32.1,37.9V60.6h-9.3V49.9h9.3v-7.9
		c0-9.2,5.6-14.2,13.8-14.2c3.9,0,7.3,0.3,8.3,0.4v9.6l-5.7,0c-4.5,0-5.3,2.1-5.3,5.2v6.9h10.6l-1.4,10.8h-9.3v30.1
		c19-2.3,33.8-18.5,33.8-38.2C91.1,31.3,73.8,14.1,52.6,14.1"/>
</g>
</svg>
