<?xml version="1.0" encoding="utf-8"?>
<!-- Generator: Adobe Illustrator 24.0.1, SVG Export Plug-In . SVG Version: 6.00 Build 0)  -->
<svg version="1.1" id="Layer_1" xmlns="http://www.w3.org/2000/svg" xmlns:xlink="http://www.w3.org/1999/xlink" x="0px" y="0px"
	 viewBox="0 0 105.2 105.2" style="enable-background:new 0 0 105.2 105.2;" xml:space="preserve">
<style type="text/css">
	.st0{fill:none;stroke:#FFFFFF;stroke-width:4;stroke-miterlimit:10;}
	.st1{fill:#FFFFFF;}
	.st2{fill:none;}
</style>
<title>Asset 1</title>
<path d="M91.1,52.6c0,21.3-17.2,38.5-38.5,38.5S14.1,73.8,14.1,52.6s17.2-38.5,38.5-38.5S91.1,31.3,91.1,52.6"/>
<path class="st0" d="M61.9,52.6c0,5.1-4.2,9.3-9.3,9.3s-9.3-4.2-9.3-9.3s4.2-9.3,9.3-9.3S61.9,47.4,61.9,52.6z M61.3,72.4H43.9
	c-6.1,0-11.2-5-11.2-11.2V43.9c0-6.1,5-11.2,11.2-11.2h17.3c6.1,0,11.2,5,11.2,11.2v17.3C72.4,67.4,67.4,72.4,61.3,72.4z"/>
<path class="st1" d="M66.7,41.4c0,1.4-1.1,2.5-2.5,2.5s-2.5-1.1-2.5-2.5s1.1-2.5,2.5-2.5C65.5,38.9,66.7,40,66.7,41.4"/>
<polyline class="st2" points="91.1,91.1 91.1,14.1 14.1,14.1 14.1,91.1 91.1,91.1 "/>
</svg>
