<svg id="Слой_1" data-name="Слой 1" xmlns="http://www.w3.org/2000/svg" viewBox="0 0 283.46 283.46"><defs><style>.cls-1{fill:#fff;}.cls-2{fill:#e1251b;}.cls-3{fill:none;}</style></defs><title>UNK_logo_project</title><circle class="cls-1" cx="141.58" cy="141.26" r="107.92"/><path class="cls-2" d="M141.67,33.61A108,108,0,0,0,36.18,164.36H215.59v37.87H52.43A107.92,107.92,0,1,0,141.67,33.61" transform="translate(-0.09 -0.27)"/><path class="cls-1" d="M67.83,96.2v37.46c0,13.23,6.47,20.06,19.91,20.06,13,0,19.85-6.83,19.85-20.06V96.2H96.23v37.1c0,7-2.38,10.5-8.49,10.5s-8.55-3.53-8.55-10.5V96.2Z" transform="translate(-0.09 -0.27)"/><rect class="cls-1" x="173.82" y="95.94" width="11.36" height="56.8"/><polygon class="cls-1" points="198.15 122.38 215.85 95.94 202.86 95.94 185.39 122.99 203.85 152.74 217.27 152.74 198.15 122.38"/><polygon class="cls-1" points="134.56 95.94 151.1 137.52 151.1 95.94 162.46 95.94 162.46 152.74 146.67 152.74 130.27 111.16 130.27 152.74 118.91 152.74 118.91 95.94 134.56 95.94"/><path class="cls-2" d="M120.05,188c1.61,0,3.36-1.43,3.36-4.65s-1.75-4.65-3.36-4.65-3.37,1.43-3.37,4.65,1.76,4.65,3.37,4.65m-7.35,9.18V175.72h3.49v2.63h0a5.63,5.63,0,0,1,5-2.86c3.45,0,6.37,2.19,6.37,7.81s-3.24,7.81-6.55,7.81a4.92,4.92,0,0,1-4.36-2.28h-.06l.09,2.48v5.82Z" transform="translate(-0.09 -0.27)"/><path class="cls-2" d="M134.26,175.72V179h.09a4.07,4.07,0,0,1,4.07-3.51,7.59,7.59,0,0,1,1.31.17l-.14,2.9c-.29,0-.88-.09-1.29-.09-1.43,0-3.68.88-3.68,5.12v7.28h-4V175.72Z" transform="translate(-0.09 -0.27)"/><path class="cls-2" d="M148.54,188.24c1.76,0,3.66-1.43,3.66-4.94s-1.9-5-3.66-5-3.65,1.44-3.65,5,1.9,4.94,3.65,4.94m0-12.75c4.51,0,7.81,2.75,7.81,7.81s-3.3,7.81-7.81,7.81-7.81-2.75-7.81-7.81,3.31-7.81,7.81-7.81" transform="translate(-0.09 -0.27)"/><path class="cls-2" d="M163.37,173.15h-4.09v-3.69h4.09Zm-.05,18.92c0,2.4-.27,5.3-4.63,5.3a6.18,6.18,0,0,1-1.75-.21v-2.81a4,4,0,0,0,1,.12c1.26,0,1.38-1,1.38-2.25v-16.5h4Z" transform="translate(-0.09 -0.27)"/><path class="cls-2" d="M176.68,181.78a3.12,3.12,0,0,0-3.13-3.54,3.31,3.31,0,0,0-3.1,3.54Zm-6.23,2.72c.12,1.93,1.52,3.74,4.51,3.74a11.48,11.48,0,0,0,4.74-1.05v3a15.19,15.19,0,0,1-5.24.94c-4.53,0-8.16-2.46-8.16-7.81,0-4.89,3.42-7.81,7.49-7.81,6.87,0,7,6.76,7,8.1v.91Z" transform="translate(-0.09 -0.27)"/><path class="cls-2" d="M194.3,178.76a6.58,6.58,0,0,0-2.46-.41,4.66,4.66,0,0,0-4.71,5c0,2.75,1.67,4.88,4.45,4.88a8,8,0,0,0,3-.61l.14,2.89a13,13,0,0,1-3.89.59c-5.41,0-7.89-4-7.89-8s2.8-7.66,8.19-7.66a14.19,14.19,0,0,1,3.36.41Z" transform="translate(-0.09 -0.27)"/><path class="cls-2" d="M195.94,178.65v-2.93h3v-3l4-1.26v4.27h3.51v2.93H202.9v6.87c0,1.32,0,2.66,2,2.66a5.3,5.3,0,0,0,1.55-.26v2.81a15.37,15.37,0,0,1-3.07.38c-4.39,0-4.42-3.69-4.42-4.68v-7.78Z" transform="translate(-0.09 -0.27)"/><rect class="cls-3" width="283.46" height="283.46"/></svg>