<svg id="Слой_1" data-name="Слой 1" xmlns="http://www.w3.org/2000/svg" viewBox="0 0 283.46 283.46"><defs><style>.cls-1{fill:none;}.cls-2{fill:#fff;}.cls-3{fill:#e1251b;}</style></defs><title>UNK_logo_arch</title><rect class="cls-1" width="283.46" height="283.46"/><circle class="cls-2" cx="141.58" cy="141.26" r="107.92"/><path class="cls-3" d="M141.67,33.61A108,108,0,0,0,36.18,164.36H215.59v37.87H52.43A107.92,107.92,0,1,0,141.67,33.61" transform="translate(-0.09 -0.27)"/><path class="cls-2" d="M67.83,96.2v37.46c0,13.23,6.47,20.06,19.91,20.06,13,0,19.85-6.83,19.85-20.06V96.2H96.23v37.1c0,7-2.38,10.5-8.49,10.5s-8.55-3.53-8.55-10.5V96.2Z" transform="translate(-0.09 -0.27)"/><rect class="cls-2" x="173.82" y="95.94" width="11.36" height="56.8"/><polygon class="cls-2" points="198.15 122.38 215.85 95.94 202.86 95.94 185.39 122.99 203.85 152.74 217.27 152.74 198.15 122.38"/><polygon class="cls-2" points="134.56 95.94 151.1 137.52 151.1 95.94 162.46 95.94 162.46 152.74 146.67 152.74 130.27 111.16 130.27 152.74 118.91 152.74 118.91 95.94 134.56 95.94"/><path class="cls-3" d="M83.42,184c-2.2,0-5.38,0-5.38,2.46,0,1.08.67,2,2.42,2s3.63-.76,3.63-4V184Zm-7.61-7.52a14.15,14.15,0,0,1,5.56-1c6.14,0,6.7,3.54,6.7,5.82v9.56H84.18v-2.22h-.06c-.32.64-1.43,2.46-4.74,2.46-3.83,0-5.38-2.25-5.38-4.62,0-2.08,1.08-5,7.52-5l2.22,0h.35v-.64c0-1.67-1.61-2.6-3.42-2.6a9.26,9.26,0,0,0-4.86,1.34Z" transform="translate(-0.09 -0.27)"/><path class="cls-3" d="M95.65,175.72V179h.09a4.06,4.06,0,0,1,4.06-3.51,7.83,7.83,0,0,1,1.32.17l-.15,2.9c-.29,0-.88-.09-1.29-.09-1.43,0-3.68.88-3.68,5.12v7.28H92V175.72Z" transform="translate(-0.09 -0.27)"/><path class="cls-3" d="M113.14,178.76a6.51,6.51,0,0,0-2.46-.41,4.66,4.66,0,0,0-4.7,5c0,2.75,1.66,4.88,4.44,4.88a7.88,7.88,0,0,0,3-.61l.15,2.89a13,13,0,0,1-3.89.59c-5.41,0-7.9-4-7.9-8s2.81-7.66,8.19-7.66a14.13,14.13,0,0,1,3.36.41Z" transform="translate(-0.09 -0.27)"/><path class="cls-3" d="M116.39,168.94h4v6.81l-.15,2.34h.09a5.59,5.59,0,0,1,4.83-2.6,5,5,0,0,1,5.35,5.35v10h-4v-8.72c0-1.2,0-3.43-2.57-3.43-1.64,0-3.57,1.32-3.57,4.6v7.55h-4Z" transform="translate(-0.09 -0.27)"/><path class="cls-3" d="M138.48,190.87h-4V175.72h4Zm.06-17.4h-4.1v-4.1h4.1Z" transform="translate(-0.09 -0.27)"/><path class="cls-3" d="M140.88,178.65v-2.93h3v-3l4-1.26v4.27h3.51v2.93h-3.51v6.87c0,1.32,0,2.66,2,2.66a5.3,5.3,0,0,0,1.55-.26v2.81a14.62,14.62,0,0,1-3.07.38c-4.39,0-4.42-3.69-4.42-4.68v-7.78Z" transform="translate(-0.09 -0.27)"/><path class="cls-3" d="M163.26,181.78a3.13,3.13,0,0,0-3.13-3.54,3.3,3.3,0,0,0-3.1,3.54ZM157,184.5c.11,1.93,1.52,3.74,4.5,3.74a11.41,11.41,0,0,0,4.74-1.05v3a15.14,15.14,0,0,1-5.24.94c-4.53,0-8.16-2.46-8.16-7.81,0-4.89,3.43-7.81,7.49-7.81,6.87,0,7,6.76,7,8.1v.91Z" transform="translate(-0.09 -0.27)"/><path class="cls-3" d="M180.87,178.76a6.51,6.51,0,0,0-2.46-.41,4.66,4.66,0,0,0-4.71,5c0,2.75,1.67,4.88,4.45,4.88a7.92,7.92,0,0,0,3-.61l.15,2.89a13.08,13.08,0,0,1-3.89.59c-5.42,0-7.9-4-7.9-8s2.81-7.66,8.19-7.66a14.19,14.19,0,0,1,3.36.41Z" transform="translate(-0.09 -0.27)"/><path class="cls-3" d="M182.51,178.65v-2.93h3v-3l4-1.26v4.27H193v2.93h-3.51v6.87c0,1.32,0,2.66,2,2.66a5.3,5.3,0,0,0,1.55-.26v2.81a14.62,14.62,0,0,1-3.07.38c-4.39,0-4.42-3.69-4.42-4.68v-7.78Z" transform="translate(-0.09 -0.27)"/><path class="cls-3" d="M205.41,179a9.41,9.41,0,0,0-3.45-.73c-2.51,0-2.66,1.2-2.66,1.58,0,1.31,1.46,1.58,2.69,2,1.73.56,4.07,1.61,4.07,4.6,0,2.4-1.85,4.68-5.91,4.68a16.74,16.74,0,0,1-5-.88l.17-3.1a11.45,11.45,0,0,0,4.27,1c2.05,0,2.52-1,2.52-1.63,0-1.26-1.2-1.61-2.63-2.14-2.4-.88-4.07-1.84-4.07-4.42,0-1.72,1.05-4.47,5.53-4.47a15.46,15.46,0,0,1,4.85.64Z" transform="translate(-0.09 -0.27)"/></svg>