<svg id="Слой_1" data-name="Слой 1" xmlns="http://www.w3.org/2000/svg" viewBox="0 0 283.46 283.46"><defs><style>.cls-1{fill:#fff;}.cls-2{fill:#e1251b;}.cls-3{fill:none;}</style></defs><title>UNK_logo_design</title><circle class="cls-1" cx="141.58" cy="141.26" r="107.92"/><path class="cls-2" d="M141.67,33.61A108,108,0,0,0,36.18,164.36H215.59v37.87H52.43A107.92,107.92,0,1,0,141.67,33.61" transform="translate(-0.09 -0.27)"/><path class="cls-1" d="M67.83,96.2v37.46c0,13.23,6.47,20.06,19.91,20.06,13,0,19.85-6.83,19.85-20.06V96.2H96.23v37.1c0,7-2.38,10.5-8.49,10.5s-8.55-3.53-8.55-10.5V96.2Z" transform="translate(-0.09 -0.27)"/><rect class="cls-1" x="173.82" y="95.94" width="11.36" height="56.8"/><polygon class="cls-1" points="198.15 122.38 215.85 95.94 202.86 95.94 185.39 122.99 203.85 152.74 217.27 152.74 198.15 122.38"/><polygon class="cls-1" points="134.56 95.94 151.1 137.52 151.1 95.94 162.46 95.94 162.46 152.74 146.67 152.74 130.27 111.16 130.27 152.74 118.91 152.74 118.91 95.94 134.56 95.94"/><path class="cls-2" d="M124,178.65c-1.61,0-3.37,1.43-3.37,4.65S122.36,188,124,188s3.36-1.43,3.36-4.65-1.75-4.65-3.36-4.65m7.34-9.71v21.94h-3.48v-2.64h-.06a5.24,5.24,0,0,1-5,2.87c-3.86,0-6.37-3-6.37-7.81,0-5.53,3.48-7.81,6.55-7.81a4.91,4.91,0,0,1,4.36,2.28h.06l-.09-2.49v-6.34Z" transform="translate(-0.09 -0.27)"/><path class="cls-2" d="M144.68,181.78a3.13,3.13,0,0,0-3.13-3.54,3.31,3.31,0,0,0-3.1,3.54Zm-6.23,2.72c.11,1.93,1.52,3.74,4.5,3.74a11.41,11.41,0,0,0,4.74-1.05v3a15.13,15.13,0,0,1-5.23.94c-4.54,0-8.17-2.46-8.17-7.81,0-4.89,3.43-7.81,7.49-7.81,6.88,0,7,6.76,7,8.1v.91Z" transform="translate(-0.09 -0.27)"/><path class="cls-2" d="M161.27,179a9.75,9.75,0,0,0-3.46-.73c-2.51,0-2.66,1.2-2.66,1.58,0,1.31,1.47,1.58,2.69,2,1.73.55,4.07,1.6,4.07,4.59,0,2.4-1.84,4.68-5.91,4.68a16.74,16.74,0,0,1-5-.88l.18-3.1a11.39,11.39,0,0,0,4.27,1c2,0,2.51-1,2.51-1.63,0-1.26-1.2-1.61-2.63-2.14-2.4-.88-4.07-1.84-4.07-4.42,0-1.72,1.06-4.47,5.53-4.47a15.55,15.55,0,0,1,4.86.64Z" transform="translate(-0.09 -0.27)"/><path class="cls-2" d="M169.17,190.87h-4V175.72h4Zm.05-17.4h-4.09v-4.09h4.09Z" transform="translate(-0.09 -0.27)"/><path class="cls-2" d="M176.45,183.27c0,3.8,2.17,4.5,3.51,4.5,1.7,0,3.34-1.55,3.34-4.79,0-2.55-1.41-4.13-3.63-4.13s-3.22,2.14-3.22,4.42M174.23,193a10.82,10.82,0,0,0,4.68,1.26c2.84,0,4.39-1.55,4.39-4.07v-2h-.09a4.68,4.68,0,0,1-4.62,2.75c-4.63,0-6.29-4.06-6.29-7.57,0-4.77,2.6-7.87,6.23-7.87a5.09,5.09,0,0,1,4.91,2.78h.09v-2.55h3.74v13.95c0,1.76-.09,7.7-7.72,7.7a15.42,15.42,0,0,1-5.65-1.05Z" transform="translate(-0.09 -0.27)"/><path class="cls-2" d="M191.22,190.87V175.72h3.84v2.37h.09a5.64,5.64,0,0,1,4.79-2.6c3.13,0,5.38,1.73,5.38,4.77v10.61h-4v-9.15c0-1.46-.71-3-2.58-3-2.45,0-3.57,2.34-3.57,4v8.16Z" transform="translate(-0.09 -0.27)"/><rect class="cls-3" width="283.46" height="283.46"/></svg>