<svg id="Слой_1" data-name="Слой 1" xmlns="http://www.w3.org/2000/svg" viewBox="0 0 283.46 228.76"><defs><style>.cls-1{fill:none;}.cls-2{fill:#e1251b;}.cls-3{fill:#fff;}</style></defs><title>UNK_logo_group</title><path class="cls-1" d="M-.35.25V229M283.12.25V229M.22,229h282.9M.22.25h282.9" transform="translate(0.35 -0.25)"/><path class="cls-1" d="M283.12,229H-.35V.25H283.12Z" transform="translate(0.35 -0.25)"/><path class="cls-2" d="M44.32,45V94.2c0,17.37,8.5,26.34,26.16,26.34,17.1,0,26.08-9,26.08-26.34V45H81.63V93.73c0,9.15-3.12,13.78-11.15,13.78-8.22,0-11.24-4.63-11.24-13.78V45Z" transform="translate(0.35 -0.25)"/><rect class="cls-2" x="184.05" y="44.76" width="14.93" height="74.6"/><polygon class="cls-2" points="216.02 79.49 239.28 44.76 222.2 44.76 199.25 80.29 223.51 119.36 241.14 119.36 216.02 79.49"/><polygon class="cls-2" points="132.46 44.76 154.2 99.37 154.2 44.76 169.12 44.76 169.12 119.36 148.38 119.36 126.83 64.75 126.83 119.36 111.91 119.36 111.91 44.76 132.46 44.76"/><rect class="cls-2" x="44.66" y="134.27" width="194.15" height="49.73"/><path class="cls-3" d="M125.36,159.35c0,5,2.84,5.92,4.61,5.92,2.23,0,4.38-2,4.38-6.3,0-3.35-1.84-5.42-4.77-5.42s-4.22,2.8-4.22,5.8m-2.92,12.75a14.1,14.1,0,0,0,6.14,1.66c3.73,0,5.77-2,5.77-5.34V165.8h-.12c-.42,1-1.88,3.61-6.07,3.61-6.07,0-8.26-5.34-8.26-9.94,0-6.27,3.42-10.34,8.18-10.34.81,0,4.73-.07,6.46,3.65h.12v-3.34h4.92v18.32c0,2.31-.12,10.11-10.15,10.11a19.91,19.91,0,0,1-7.42-1.39Z" transform="translate(0.35 -0.25)"/><path class="cls-3" d="M149.53,149.44v4.3h.12a5.35,5.35,0,0,1,5.34-4.61,9.8,9.8,0,0,1,1.73.23l-.19,3.81c-.38,0-1.15-.12-1.69-.12-1.89,0-4.84,1.15-4.84,6.72v9.57h-5.23v-19.9Z" transform="translate(0.35 -0.25)"/><path class="cls-3" d="M168.29,165.88c2.31,0,4.81-1.88,4.81-6.49s-2.5-6.49-4.81-6.49-4.8,1.88-4.8,6.49,2.5,6.49,4.8,6.49m0-16.75c5.92,0,10.26,3.61,10.26,10.26s-4.34,10.26-10.26,10.26S158,166,158,159.39s4.34-10.26,10.26-10.26" transform="translate(0.35 -0.25)"/><path class="cls-3" d="M201.12,149.44v19.9h-5v-3.11H196a7.42,7.42,0,0,1-6.31,3.41c-2.38,0-7.07-.49-7.07-7.33V149.44h5.23v12c0,1.31.15,3.92,3.38,3.92,3,0,4.69-2.73,4.69-5.42V149.44Z" transform="translate(0.35 -0.25)"/><path class="cls-3" d="M216,165.5c2.11,0,4.42-1.89,4.42-6.11s-2.31-6.11-4.42-6.11-4.42,1.88-4.42,6.11,2.3,6.11,4.42,6.11m-9.65,12.06V149.44h4.57v3.46H211a7.4,7.4,0,0,1,6.5-3.77c4.53,0,8.37,2.88,8.37,10.26s-4.26,10.25-8.61,10.25a6.42,6.42,0,0,1-5.72-3h-.08l.12,3.26v7.65Z" transform="translate(0.35 -0.25)"/></svg>