<svg id="Слой_1" data-name="Слой 1" xmlns="http://www.w3.org/2000/svg" viewBox="0 0 283.46 283.46"><defs><style>.cls-1{fill:#fff;}.cls-2{fill:#e1251b;}.cls-3{fill:none;}</style></defs><title>UNK_logo_corp_int</title><circle class="cls-1" cx="141.58" cy="141.26" r="107.92"/><path class="cls-2" d="M141.67,33.61A108,108,0,0,0,36.18,164.36H215.59v37.87H52.43A107.92,107.92,0,1,0,141.67,33.61" transform="translate(-0.09 -0.27)"/><path class="cls-1" d="M67.83,96.2v37.46c0,13.23,6.47,20.06,19.91,20.06,13,0,19.85-6.83,19.85-20.06V96.2H96.23v37.1c0,7-2.38,10.5-8.49,10.5s-8.55-3.53-8.55-10.5V96.2Z" transform="translate(-0.09 -0.27)"/><rect class="cls-1" x="173.82" y="95.94" width="11.36" height="56.8"/><polygon class="cls-1" points="198.15 122.38 215.85 95.94 202.86 95.94 185.39 122.99 203.85 152.74 217.27 152.74 198.15 122.38"/><polygon class="cls-1" points="134.56 95.94 151.1 137.52 151.1 95.94 162.46 95.94 162.46 152.74 146.67 152.74 130.27 111.16 130.27 152.74 118.91 152.74 118.91 95.94 134.56 95.94"/><path class="cls-2" d="M86.26,178.77a6.32,6.32,0,0,0-2.46-.42,4.66,4.66,0,0,0-4.71,5c0,2.75,1.67,4.88,4.45,4.88a8,8,0,0,0,3-.61l.14,2.89a13,13,0,0,1-3.89.59c-5.41,0-7.89-4-7.89-8s2.8-7.66,8.19-7.66a14.19,14.19,0,0,1,3.36.41Z" transform="translate(-0.09 -0.27)"/><path class="cls-2" d="M95.77,188.24c1.75,0,3.65-1.43,3.65-4.94s-1.9-4.94-3.65-4.94-3.66,1.43-3.66,4.94,1.9,4.94,3.66,4.94m0-12.75c4.5,0,7.8,2.75,7.8,7.81s-3.3,7.81-7.8,7.81S88,188.36,88,183.3s3.3-7.81,7.81-7.81" transform="translate(-0.09 -0.27)"/><path class="cls-2" d="M110.28,175.72V179h.08a4.08,4.08,0,0,1,4.07-3.51,7.83,7.83,0,0,1,1.32.17l-.15,2.9c-.29,0-.88-.09-1.29-.09-1.43,0-3.68.88-3.68,5.12v7.28h-4V175.72Z" transform="translate(-0.09 -0.27)"/><path class="cls-2" d="M125.72,188c1.61,0,3.37-1.43,3.37-4.65s-1.76-4.65-3.37-4.65-3.36,1.43-3.36,4.65,1.75,4.65,3.36,4.65m-7.34,9.18V175.72h3.48v2.63h.06a5.63,5.63,0,0,1,4.94-2.86c3.45,0,6.38,2.19,6.38,7.81s-3.25,7.81-6.55,7.81a4.91,4.91,0,0,1-4.36-2.28h-.06l.09,2.48v5.82Z" transform="translate(-0.09 -0.27)"/><path class="cls-2" d="M143.25,188.24c1.75,0,3.65-1.43,3.65-4.94s-1.9-4.94-3.65-4.94-3.66,1.43-3.66,4.94,1.9,4.94,3.66,4.94m0-12.75c4.5,0,7.81,2.75,7.81,7.81s-3.31,7.81-7.81,7.81-7.81-2.75-7.81-7.81,3.3-7.81,7.81-7.81" transform="translate(-0.09 -0.27)"/><path class="cls-2" d="M157.76,175.72V179h.08a4.08,4.08,0,0,1,4.07-3.51,7.83,7.83,0,0,1,1.32.17l-.15,2.9c-.29,0-.88-.09-1.29-.09-1.43,0-3.68.88-3.68,5.12v7.28h-4V175.72Z" transform="translate(-0.09 -0.27)"/><path class="cls-2" d="M172.91,184c-2.19,0-5.38,0-5.38,2.46,0,1.08.67,2,2.43,2s3.62-.76,3.62-4V184Zm-7.6-7.52a14.1,14.1,0,0,1,5.55-1c6.14,0,6.7,3.54,6.7,5.82v9.57h-3.89v-2.23h-.06c-.32.64-1.43,2.46-4.74,2.46-3.83,0-5.38-2.25-5.38-4.62,0-2.08,1.08-5,7.52-5l2.22,0h.35v-.64c0-1.67-1.61-2.6-3.42-2.6a9.21,9.21,0,0,0-4.85,1.34Z" transform="translate(-0.09 -0.27)"/><path class="cls-2" d="M179.73,178.65v-2.93h3v-3l4-1.26v4.27h3.51v2.93h-3.51v6.87c0,1.32,0,2.66,2,2.66a5.24,5.24,0,0,0,1.55-.26v2.81a14.51,14.51,0,0,1-3.07.38c-4.39,0-4.42-3.69-4.42-4.68v-7.78Z" transform="translate(-0.09 -0.27)"/><path class="cls-2" d="M202.11,181.78a3.13,3.13,0,0,0-3.13-3.54,3.3,3.3,0,0,0-3.1,3.54Zm-6.23,2.72c.11,1.93,1.52,3.74,4.5,3.74a11.41,11.41,0,0,0,4.74-1.05v3a15.14,15.14,0,0,1-5.24.94c-4.53,0-8.16-2.46-8.16-7.81,0-4.89,3.43-7.81,7.49-7.81,6.88,0,7,6.76,7,8.1v.91Z" transform="translate(-0.09 -0.27)"/><path class="cls-1" d="M96.18,226.86H92.7V213.61h3.48Zm0-15.23H92.65v-3.58h3.58Z" transform="translate(-0.09 -0.27)"/><path class="cls-1" d="M99.68,226.86V213.61H103v2.07h.08a4.93,4.93,0,0,1,4.19-2.28c2.74,0,4.71,1.51,4.71,4.17v9.29h-3.48v-8c0-1.28-.61-2.61-2.25-2.61-2.15,0-3.12,2-3.12,3.48v7.14Z" transform="translate(-0.09 -0.27)"/><path class="cls-1" d="M114.06,216.16v-2.55h2.61V211l3.48-1.1v3.74h3.07v2.55h-3.07v6c0,1.15,0,2.32,1.71,2.32a4.67,4.67,0,0,0,1.36-.23v2.46a13,13,0,0,1-2.69.33c-3.84,0-3.86-3.22-3.86-4.09v-6.81Z" transform="translate(-0.09 -0.27)"/><path class="cls-1" d="M133.63,218.9a2.74,2.74,0,0,0-2.74-3.09,2.9,2.9,0,0,0-2.71,3.09Zm-5.45,2.38c.1,1.69,1.33,3.27,3.94,3.27a9.82,9.82,0,0,0,4.14-.92v2.61a13.35,13.35,0,0,1-4.58.82c-4,0-7.13-2.15-7.13-6.83a6.43,6.43,0,0,1,6.55-6.83c6,0,6.11,5.91,6.11,7.09v.79Z" transform="translate(-0.09 -0.27)"/><path class="cls-1" d="M143.07,213.61v2.86h.07a3.56,3.56,0,0,1,3.56-3.07,6.85,6.85,0,0,1,1.15.15l-.13,2.54a11.08,11.08,0,0,0-1.12-.08c-1.26,0-3.23.77-3.23,4.48v6.37H139.9V213.61Z" transform="translate(-0.09 -0.27)"/><path class="cls-1" d="M153.69,226.86h-3.48V213.61h3.48Zm.05-15.23h-3.59v-3.58h3.59Z" transform="translate(-0.09 -0.27)"/><path class="cls-1" d="M163.25,224.55c1.54,0,3.2-1.25,3.2-4.32s-1.66-4.32-3.2-4.32-3.2,1.25-3.2,4.32,1.67,4.32,3.2,4.32m0-11.15c3.94,0,6.83,2.41,6.83,6.83s-2.89,6.83-6.83,6.83-6.83-2.4-6.83-6.83,2.89-6.83,6.83-6.83" transform="translate(-0.09 -0.27)"/><path class="cls-1" d="M175.94,213.61v2.86H176a3.55,3.55,0,0,1,3.55-3.07,6.72,6.72,0,0,1,1.15.15l-.13,2.54a11.08,11.08,0,0,0-1.12-.08c-1.25,0-3.22.77-3.22,4.48v6.37h-3.48V213.61Z" transform="translate(-0.09 -0.27)"/><path class="cls-1" d="M190.73,216.47a8.35,8.35,0,0,0-3-.64c-2.2,0-2.33,1-2.33,1.38,0,1.15,1.28,1.38,2.35,1.74,1.51.49,3.56,1.41,3.56,4,0,2.1-1.61,4.09-5.17,4.09a14.76,14.76,0,0,1-4.4-.77l.16-2.71a9.83,9.83,0,0,0,3.73.9c1.79,0,2.2-.9,2.2-1.44,0-1.1-1.05-1.4-2.3-1.86-2.1-.77-3.56-1.61-3.56-3.87,0-1.5.92-3.91,4.84-3.91A13.4,13.4,0,0,1,191,214Z" transform="translate(-0.09 -0.27)"/><rect class="cls-3" width="283.46" height="283.46"/></svg>