<?xml version="1.0" encoding="utf-8"?>
<!-- Generator: Adobe Illustrator 24.0.1, SVG Export Plug-In . SVG Version: 6.00 Build 0)  -->
<svg version="1.1" id="Layer_1" xmlns="http://www.w3.org/2000/svg" xmlns:xlink="http://www.w3.org/1999/xlink" x="0px" y="0px"
	 viewBox="0 0 105.2 105.2" style="enable-background:new 0 0 105.2 105.2;" xml:space="preserve">
<style type="text/css">
	.st0{clip-path:url(#SVGID_2_);fill:#FFFFFF;}
	.st1{clip-path:url(#SVGID_2_);fill:#E3241C;}
	.st2{fill:#E3241C;}
	.st3{clip-path:url(#SVGID_4_);fill:#E3241C;}
	.st4{clip-path:url(#SVGID_4_);fill:#FFFFFF;}
	.st5{fill:#FFFFFF;}
</style>
<title>Asset 1</title>
<g>
	<defs>
		<rect id="SVGID_1_" x="0" width="105.2" height="105.2"/>
	</defs>
	<clipPath id="SVGID_2_">
		<use xlink:href="#SVGID_1_"  style="overflow:visible;"/>
	</clipPath>
	<path class="st0" d="M52.6,105.2c29,0,52.6-23.5,52.6-52.6c0-29-23.5-52.6-52.6-52.6S0,23.5,0,52.6C0,81.6,23.5,105.2,52.6,105.2"
		/>
	<path class="st1" d="M21.1,75.7c-0.5,0.6-1.2,1-2.2,1c-1.5,0-2.5-0.8-2.5-2.2c0-1.5,1.1-2.1,2.8-2.2c0.7,0,1.3,0,1.9,0v-0.6
		c0-0.8-0.5-1.2-1.4-1.2c-0.8,0-1.3,0.4-1.5,1.1l-1.6-0.3c0.3-1.3,1.3-2.3,3.1-2.3c1.7,0,3,0.7,3,2.6v4.8h-1.6V75.7z M19.3,73.5
		c-0.8,0-1.3,0.3-1.3,1c0,0.6,0.5,1,1.2,1c1,0,1.8-0.5,1.8-1.3v-0.6C20.5,73.4,19.9,73.4,19.3,73.5"/>
	<path class="st1" d="M24.7,69.2h1.7v1c0.5-0.8,1.3-1,2-1H29v1.6h-0.6c-1,0-1.9,0.4-1.9,1.2v4.5h-1.8V69.2z"/>
	<path class="st1" d="M36.5,74.2c-0.3,1.5-1.4,2.5-3.3,2.5c-2.1,0-3.5-1.3-3.5-3.8c0-2.5,1.5-3.8,3.5-3.8c2,0,3,1.1,3.2,2.4L35,71.8
		c-0.2-0.7-0.6-1.3-1.6-1.3c-1.1,0-1.8,0.8-1.8,2.3c0,1.5,0.6,2.3,1.8,2.3c1,0,1.5-0.6,1.6-1.3L36.5,74.2z"/>
	<path class="st1" d="M38.1,66.3h1.7v3.9c0.5-0.6,1.3-1.1,2.3-1.1c1.6,0,2.7,0.9,2.7,2.6v4.9H43V72c0-0.9-0.5-1.4-1.5-1.4
		c-0.9,0-1.7,0.6-1.7,1.5v4.4h-1.7V66.3z"/>
</g>
<path class="st2" d="M46.7,66.4h1.8v1.7h-1.8V66.4z M46.8,69.2h1.7v7.3h-1.7V69.2z"/>
<g>
	<defs>
		<rect id="SVGID_3_" x="0" width="105.2" height="105.2"/>
	</defs>
	<clipPath id="SVGID_4_">
		<use xlink:href="#SVGID_3_"  style="overflow:visible;"/>
	</clipPath>
	<path class="st3" d="M53.7,76.6c-2,0-2.7-0.8-2.7-2.7v-3.1h-1.2v-1.5H51v-1.9h1.7v1.9h2.1v1.5h-2.1v3c0,0.9,0.4,1.2,1.1,1.2h1v1.5
		H53.7z"/>
	<path class="st3" d="M57.6,73.3c0.1,1.3,0.8,2,1.9,2c1,0,1.5-0.6,1.7-1.1l1.6,0.3c-0.3,1.2-1.3,2.2-3.3,2.2c-2.2,0-3.5-1.4-3.5-3.8
		c0-2.5,1.6-3.8,3.5-3.8c2.1,0,3.3,1.4,3.3,3.7v0.5H57.6z M57.6,72.1h3.4c-0.1-1-0.6-1.6-1.6-1.6C58.5,70.5,57.8,71,57.6,72.1"/>
	<path class="st3" d="M70.7,74.2c-0.3,1.5-1.4,2.5-3.3,2.5c-2.1,0-3.5-1.3-3.5-3.8c0-2.5,1.5-3.8,3.5-3.8c2,0,3,1.1,3.2,2.4
		l-1.6,0.3c-0.2-0.7-0.6-1.3-1.6-1.3c-1.1,0-1.8,0.8-1.8,2.3c0,1.5,0.6,2.3,1.8,2.3c1,0,1.5-0.6,1.6-1.3L70.7,74.2z"/>
	<path class="st3" d="M75.3,76.6c-2,0-2.7-0.8-2.7-2.7v-3.1h-1.2v-1.5h1.2v-1.9h1.7v1.9h2.1v1.5h-2.1v3c0,0.9,0.4,1.2,1.1,1.2h1v1.5
		H75.3z"/>
	<path class="st3" d="M79.2,74.2c0.2,0.7,0.7,1.1,1.6,1.1c1,0,1.4-0.3,1.4-0.8c0-0.5-0.3-0.7-1.2-0.9l-1-0.2
		c-1.4-0.2-2.2-0.8-2.2-2.1c0-1.4,1.2-2.3,3-2.3c1.7,0,2.8,0.9,3.1,2.1l-1.5,0.3c-0.2-0.6-0.6-1.1-1.5-1.1c-0.8,0-1.3,0.3-1.3,0.8
		c0,0.5,0.4,0.7,1.1,0.8l0.9,0.2c1.5,0.3,2.3,0.9,2.3,2.2c0,1.4-1.1,2.3-3.1,2.3c-1.8,0-3-0.7-3.2-2.3L79.2,74.2z"/>
	<path class="st3" d="M52.6,0C23.5,0,0,23.5,0,52.6c0,3.8,0.4,7.5,1.2,11.1h87.4v18.4H9.1c9.5,13.9,25.4,23,43.5,23
		c29,0,52.6-23.5,52.6-52.6C105.2,23.5,81.6,0,52.6,0"/>
	<path class="st4" d="M16.6,30.5v18.2c0,6.4,3.2,9.8,9.7,9.8c6.3,0,9.7-3.3,9.7-9.8V30.5h-5.5v18.1c0,3.4-1.2,5.1-4.1,5.1
		c-3,0-4.2-1.7-4.2-5.1V30.5H16.6z"/>
</g>
<rect x="68.3" y="30.5" class="st5" width="5.5" height="27.7"/>
<polygon class="st5" points="80.1,43.4 88.8,30.5 82.4,30.5 73.9,43.7 82.9,58.2 89.5,58.2 "/>
<polygon class="st5" points="49.2,30.5 57.2,50.8 57.2,30.5 62.8,30.5 62.8,58.2 55.1,58.2 47.1,37.9 47.1,58.2 41.5,58.2 
	41.5,30.5 "/>
</svg>
